<?xml version="1.0" standalone="no"?>
<!DOCTYPE svg PUBLIC "-//W3C//DTD SVG 20010904//EN"
 "http://www.w3.org/TR/2001/REC-SVG-20010904/DTD/svg10.dtd">
<svg version="1.0" xmlns="http://www.w3.org/2000/svg"
 width="441.000000pt" height="441.000000pt" viewBox="0 0 441.000000 441.000000"
 preserveAspectRatio="xMidYMid meet">
<metadata>
Created by potrace 1.11, written by Peter Selinger 2001-2013
</metadata>
<g transform="translate(0.000000,441.000000) scale(0.100000,-0.100000)"
fill="#000000" stroke="none">
<path d="M153 4140 c-57 -13 -127 -72 -142 -119 -7 -22 -13 -3559 -6 -3597 3
-18 16 -48 29 -67 14 -20 21 -39 18 -43 -4 -4 -1 -4 6 0 6 4 12 2 12 -3 0 -6
6 -10 13 -8 6 1 11 -3 10 -10 -1 -6 5 -10 15 -8 9 1 26 -2 36 -7 22 -12 4117
-17 4109 -5 -3 6 5 8 32 7 18 -1 86 72 104 113 17 35 18 144 18 1815 0 1668
-1 1780 -17 1818 -22 51 -79 99 -135 113 -49 12 -4050 14 -4102 1z"/>
</g>
</svg>
